<svg width="20" height="23" viewBox="0 0 20 23" fill="none" xmlns="http://www.w3.org/2000/svg">
<path d="M13.8087 21.0642V17.2178H16.8858C17.2939 17.2178 17.6852 17.0557 17.9738 16.7671C18.2623 16.4786 18.4244 16.0872 18.4244 15.6792V9.52484C18.4241 8.02092 18.0231 6.54424 17.2625 5.24682C16.5019 3.9494 15.4093 2.87811 14.0971 2.14324C12.785 1.40837 11.3007 1.03647 9.79705 1.06582C8.29342 1.09517 6.82477 1.52471 5.54229 2.31023C4.25982 3.09575 3.20985 4.20886 2.50048 5.53497C1.79111 6.86109 1.44797 8.35229 1.50639 9.85508C1.5648 11.3579 2.02265 12.8179 2.83281 14.085C3.64297 15.352 4.77617 16.3803 6.11575 17.0639V21.0642" stroke="white" stroke-width="2" stroke-linecap="round" stroke-linejoin="round"/>
</svg>
