<svg width="22" height="21" fill="none" xmlns="http://www.w3.org/2000/svg"><path d="M19.572 9.849h-5.715a.714.714 0 00-.714.714v8.572c0 .394.32.714.714.714h5.715c.394 0 .714-.32.714-.714v-8.572a.714.714 0 00-.714-.714zm0-8.571h-5.715a.714.714 0 00-.714.714v2.871c0 .395.32.715.714.715h5.715c.394 0 .714-.32.714-.715V1.992a.714.714 0 00-.714-.714zm-11.429 0H2.429a.714.714 0 00-.715.714v8.571c0 .395.32.714.715.714h5.714c.394 0 .714-.32.714-.714V1.992a.714.714 0 00-.714-.714zm0 14.271H2.429a.714.714 0 00-.715.714v2.872c0 .394.32.714.715.714h5.714c.394 0 .714-.32.714-.714v-2.872a.714.714 0 00-.714-.714z" stroke="#fff" stroke-width="2" stroke-linecap="round" stroke-linejoin="round"/></svg>