<svg width="30" height="30" fill="none" xmlns="http://www.w3.org/2000/svg"><path d="M28.847 10.064c-.632-1.52-1.913-3.161-2.917-3.68a15.106 15.106 0 011.473 4.413l.002.025c-1.644-4.099-4.431-5.751-6.708-9.35-.115-.182-.23-.364-.343-.557a4.548 4.548 0 01-.16-.3 2.646 2.646 0 01-.217-.576.037.037 0 00-.033-.037.052.052 0 00-.027 0l-.007.004c-.003 0-.007.004-.01.006l.005-.01c-3.652 2.138-4.891 6.097-5.006 8.077a7.273 7.273 0 00-4 1.542 4.34 4.34 0 00-.376-.284 6.74 6.74 0 01-.04-3.554 10.769 10.769 0 00-3.5 2.705h-.007c-.577-.73-.536-3.14-.503-3.642a2.6 2.6 0 00-.486.258c-.508.363-.984.77-1.42 1.217-.499.505-.953 1.05-1.36 1.63v.003-.003a12.28 12.28 0 00-1.95 4.406l-.02.096c-.028.128-.126.769-.143.908 0 .01-.002.02-.004.032a13.858 13.858 0 00-.236 2.004v.075a14.54 14.54 0 0028.87 2.459c.024-.188.044-.373.066-.563.3-2.475-.025-4.986-.943-7.304zM12.089 21.446c.068.032.131.068.201.099l.01.006a7.703 7.703 0 01-.211-.105zm15.317-10.621v-.014l.003.015-.003-.001z" fill="url(#paint0_linear_404_191)"/><path d="M28.847 10.064c-.632-1.52-1.913-3.161-2.917-3.68a15.106 15.106 0 011.473 4.413v.014l.002.016a13.168 13.168 0 01-.452 9.813c-1.667 3.575-5.7 7.24-12.014 7.062C8.117 27.51 2.109 22.447.985 15.816c-.204-1.045 0-1.575.103-2.425-.14.66-.218 1.332-.234 2.006v.075a14.54 14.54 0 0028.87 2.459c.024-.188.044-.373.066-.563.3-2.475-.025-4.986-.943-7.304z" fill="url(#paint1_radial_404_191)"/><path d="M28.847 10.064c-.632-1.52-1.913-3.161-2.917-3.68a15.106 15.106 0 011.473 4.413v.014l.002.016a13.168 13.168 0 01-.452 9.813c-1.667 3.575-5.7 7.24-12.014 7.062C8.117 27.51 2.109 22.447.985 15.816c-.204-1.045 0-1.575.103-2.425-.14.66-.218 1.332-.234 2.006v.075a14.54 14.54 0 0028.87 2.459c.024-.188.044-.373.066-.563.3-2.475-.025-4.986-.943-7.304z" fill="url(#paint2_radial_404_191)"/><path d="M21.781 11.774c.032.022.061.044.09.066a7.918 7.918 0 00-1.35-1.761C16.002 5.559 19.337.279 19.9.01l.006-.008C16.254 2.14 15.014 6.099 14.9 8.079c.17-.012.338-.026.511-.026a7.338 7.338 0 016.371 3.72z" fill="url(#paint3_radial_404_191)"/><path d="M15.42 12.676c-.024.362-1.302 1.609-1.748 1.609-4.135 0-4.806 2.501-4.806 2.501.183 2.106 1.65 3.841 3.425 4.759.08.042.163.08.245.117.142.063.284.121.427.175a6.465 6.465 0 001.892.364c7.247.34 8.65-8.665 3.42-11.279a5.02 5.02 0 013.507.851 7.337 7.337 0 00-6.371-3.72c-.173 0-.342.014-.511.026a7.273 7.273 0 00-4.002 1.542c.222.188.472.438 1 .958.986.972 3.516 1.979 3.522 2.097z" fill="url(#paint4_radial_404_191)"/><path d="M15.42 12.676c-.024.362-1.302 1.609-1.748 1.609-4.135 0-4.806 2.501-4.806 2.501.183 2.106 1.65 3.841 3.425 4.759.08.042.163.08.245.117.142.063.284.121.427.175a6.465 6.465 0 001.892.364c7.247.34 8.65-8.665 3.42-11.279a5.02 5.02 0 013.507.851 7.337 7.337 0 00-6.371-3.72c-.173 0-.342.014-.511.026a7.273 7.273 0 00-4.002 1.542c.222.188.472.438 1 .958.986.972 3.516 1.979 3.522 2.097z" fill="url(#paint5_radial_404_191)"/><path d="M10.22 9.138c.118.075.215.14.3.199a6.741 6.741 0 01-.04-3.554 10.769 10.769 0 00-3.5 2.705c.07-.002 2.18-.04 3.24.65z" fill="url(#paint6_radial_404_191)"/><path d="M.988 15.816c1.122 6.63 7.13 11.693 13.953 11.886 6.314.179 10.347-3.487 12.014-7.062a13.168 13.168 0 00.452-9.813v-.014c0-.011-.002-.018 0-.014l.003.024c.516 3.368-1.197 6.63-3.875 8.837l-.008.019c-5.218 4.25-10.211 2.564-11.222 1.876a7.708 7.708 0 01-.211-.106c-3.043-1.454-4.3-4.226-4.03-6.603A3.734 3.734 0 014.62 12.68a5.484 5.484 0 015.345-.215 7.24 7.24 0 005.46.215c-.006-.118-2.537-1.126-3.523-2.097-.527-.52-.777-.77-1-.958a4.36 4.36 0 00-.374-.284 20.256 20.256 0 00-.3-.2c-1.061-.69-3.17-.651-3.24-.65h-.007c-.576-.73-.535-3.138-.502-3.641-.17.068-.334.155-.486.257-.508.363-.984.77-1.42 1.218-.5.503-.957 1.047-1.366 1.627v.002-.003a12.28 12.28 0 00-1.95 4.406c-.008.03-.524 2.288-.27 3.46z" fill="url(#paint7_radial_404_191)"/><path d="M20.522 10.079c.53.52.986 1.114 1.35 1.763.08.06.155.12.219.178 3.296 3.039 1.569 7.335 1.44 7.64 2.678-2.206 4.39-5.469 3.875-8.837-1.644-4.1-4.432-5.752-6.71-9.35a17.67 17.67 0 01-.342-.558 4.548 4.548 0 01-.16-.3 2.645 2.645 0 01-.217-.576.038.038 0 00-.033-.037.051.051 0 00-.027 0l-.007.004c-.002 0-.007.004-.01.006-.563.266-3.898 5.547.622 10.067z" fill="url(#paint8_radial_404_191)"/><path d="M22.088 12.018a3.048 3.048 0 00-.218-.178l-.09-.067a5.02 5.02 0 00-3.506-.85c5.23 2.614 3.827 11.618-3.42 11.278a6.469 6.469 0 01-1.893-.364 7.668 7.668 0 01-.427-.175c-.082-.038-.164-.075-.245-.117l.01.006c1.01.69 6.003 2.375 11.222-1.876l.008-.019c.13-.303 1.857-4.6-1.44-7.638z" fill="url(#paint9_radial_404_191)"/><path d="M8.866 16.786s.67-2.5 4.806-2.5c.446 0 1.725-1.248 1.748-1.61a7.24 7.24 0 01-5.46-.214 5.485 5.485 0 00-5.345.214 3.734 3.734 0 003.445 2.167c-.27 2.377.987 5.149 4.03 6.602.067.033.13.068.2.1-1.775-.918-3.241-2.653-3.424-4.759z" fill="url(#paint10_radial_404_191)"/><path d="M28.847 10.064c-.632-1.52-1.913-3.161-2.917-3.68a15.106 15.106 0 011.473 4.413l.002.025c-1.644-4.099-4.431-5.751-6.708-9.35-.115-.182-.23-.364-.343-.557a4.548 4.548 0 01-.16-.3 2.646 2.646 0 01-.217-.576.037.037 0 00-.033-.037.052.052 0 00-.027 0l-.007.004c-.003 0-.007.004-.01.006l.005-.01c-3.652 2.138-4.891 6.097-5.006 8.077.17-.012.338-.026.512-.026a7.338 7.338 0 016.37 3.72 5.02 5.02 0 00-3.505-.85c5.23 2.614 3.826 11.618-3.421 11.279a6.466 6.466 0 01-1.892-.365 7.744 7.744 0 01-.427-.175c-.082-.038-.165-.075-.246-.117l.01.006a7.703 7.703 0 01-.211-.105c.068.032.131.068.201.099-1.775-.918-3.241-2.653-3.424-4.759 0 0 .67-2.5 4.805-2.5.447 0 1.726-1.248 1.749-1.61-.006-.118-2.536-1.125-3.523-2.097-.527-.52-.777-.77-.999-.958a4.34 4.34 0 00-.375-.284 6.74 6.74 0 01-.04-3.554 10.769 10.769 0 00-3.5 2.705h-.007c-.577-.73-.536-3.14-.503-3.642a2.6 2.6 0 00-.486.258c-.508.363-.984.77-1.42 1.217-.499.505-.953 1.05-1.36 1.63v.003-.003a12.28 12.28 0 00-1.95 4.406l-.02.096c-.028.128-.15.777-.168.917 0 .01 0-.01 0 0a17.01 17.01 0 00-.215 2.027v.075a14.54 14.54 0 0028.87 2.459c.024-.188.044-.373.066-.563.3-2.475-.025-4.986-.943-7.304zm-1.443.747l.003.015-.003-.015z" fill="url(#paint11_linear_404_191)"/><defs><radialGradient id="paint1_radial_404_191" cx="0" cy="0" r="1" gradientUnits="userSpaceOnUse" gradientTransform="translate(25.807 3.33) scale(30.3113)"><stop offset=".129" stop-color="#FFBD4F"/><stop offset=".186" stop-color="#FFAC31"/><stop offset=".247" stop-color="#FF9D17"/><stop offset=".283" stop-color="#FF980E"/><stop offset=".403" stop-color="#FF563B"/><stop offset=".467" stop-color="#FF3750"/><stop offset=".71" stop-color="#F5156C"/><stop offset=".782" stop-color="#EB0878"/><stop offset=".86" stop-color="#E50080"/></radialGradient><radialGradient id="paint2_radial_404_191" cx="0" cy="0" r="1" gradientUnits="userSpaceOnUse" gradientTransform="translate(14.731 15.722) scale(30.3113)"><stop offset=".3" stop-color="#960E18"/><stop offset=".351" stop-color="#B11927" stop-opacity=".74"/><stop offset=".435" stop-color="#DB293D" stop-opacity=".343"/><stop offset=".497" stop-color="#F5334B" stop-opacity=".094"/><stop offset=".53" stop-color="#FF3750" stop-opacity="0"/></radialGradient><radialGradient id="paint3_radial_404_191" cx="0" cy="0" r="1" gradientUnits="userSpaceOnUse" gradientTransform="translate(18.385 -3.55) scale(21.9593)"><stop offset=".132" stop-color="#FFF44F"/><stop offset=".252" stop-color="#FFDC3E"/><stop offset=".506" stop-color="#FF9D12"/><stop offset=".526" stop-color="#FF980E"/></radialGradient><radialGradient id="paint4_radial_404_191" cx="0" cy="0" r="1" gradientUnits="userSpaceOnUse" gradientTransform="translate(11.379 23.639) scale(14.4326)"><stop offset=".353" stop-color="#3A8EE6"/><stop offset=".472" stop-color="#5C79F0"/><stop offset=".669" stop-color="#9059FF"/><stop offset="1" stop-color="#C139E6"/></radialGradient><radialGradient id="paint5_radial_404_191" cx="0" cy="0" r="1" gradientUnits="userSpaceOnUse" gradientTransform="matrix(7.43777 -1.79823 2.10528 8.70777 16.388 13.237)"><stop offset=".206" stop-color="#9059FF" stop-opacity="0"/><stop offset=".278" stop-color="#8C4FF3" stop-opacity=".064"/><stop offset=".747" stop-color="#7716A8" stop-opacity=".45"/><stop offset=".975" stop-color="#6E008B" stop-opacity=".6"/></radialGradient><radialGradient id="paint6_radial_404_191" cx="0" cy="0" r="1" gradientUnits="userSpaceOnUse" gradientTransform="translate(14.348 2.09) scale(10.3828)"><stop stop-color="#FFE226"/><stop offset=".121" stop-color="#FFDB27"/><stop offset=".295" stop-color="#FFC82A"/><stop offset=".502" stop-color="#FFA930"/><stop offset=".732" stop-color="#FF7E37"/><stop offset=".792" stop-color="#FF7139"/></radialGradient><radialGradient id="paint7_radial_404_191" cx="0" cy="0" r="1" gradientUnits="userSpaceOnUse" gradientTransform="translate(22.51 -4.496) scale(44.2986)"><stop offset=".113" stop-color="#FFF44F"/><stop offset=".456" stop-color="#FF980E"/><stop offset=".622" stop-color="#FF5634"/><stop offset=".716" stop-color="#FF3647"/><stop offset=".904" stop-color="#E31587"/></radialGradient><radialGradient id="paint8_radial_404_191" cx="0" cy="0" r="1" gradientUnits="userSpaceOnUse" gradientTransform="matrix(3.4073 32.28822 -21.19044 2.23618 18.776 -2.033)"><stop stop-color="#FFF44F"/><stop offset=".06" stop-color="#FFE847"/><stop offset=".168" stop-color="#FFC830"/><stop offset=".304" stop-color="#FF980E"/><stop offset=".356" stop-color="#FF8B16"/><stop offset=".455" stop-color="#FF672A"/><stop offset=".57" stop-color="#FF3647"/><stop offset=".737" stop-color="#E31587"/></radialGradient><radialGradient id="paint9_radial_404_191" cx="0" cy="0" r="1" gradientUnits="userSpaceOnUse" gradientTransform="translate(14.104 5.935) scale(27.6564)"><stop offset=".137" stop-color="#FFF44F"/><stop offset=".48" stop-color="#FF980E"/><stop offset=".592" stop-color="#FF5634"/><stop offset=".655" stop-color="#FF3647"/><stop offset=".904" stop-color="#E31587"/></radialGradient><radialGradient id="paint10_radial_404_191" cx="0" cy="0" r="1" gradientUnits="userSpaceOnUse" gradientTransform="translate(21.405 7.554) scale(30.2697)"><stop offset=".094" stop-color="#FFF44F"/><stop offset=".231" stop-color="#FFE141"/><stop offset=".509" stop-color="#FFAF1E"/><stop offset=".626" stop-color="#FF980E"/></radialGradient><linearGradient id="paint0_linear_404_191" x1="26.922" y1="4.648" x2="2.785" y2="27.936" gradientUnits="userSpaceOnUse"><stop offset=".048" stop-color="#FFF44F"/><stop offset=".111" stop-color="#FFE847"/><stop offset=".225" stop-color="#FFC830"/><stop offset=".368" stop-color="#FF980E"/><stop offset=".401" stop-color="#FF8B16"/><stop offset=".462" stop-color="#FF672A"/><stop offset=".534" stop-color="#FF3647"/><stop offset=".705" stop-color="#E31587"/></linearGradient><linearGradient id="paint11_linear_404_191" x1="26.633" y1="4.523" x2="6.094" y2="25.061" gradientUnits="userSpaceOnUse"><stop offset=".167" stop-color="#FFF44F" stop-opacity=".8"/><stop offset=".266" stop-color="#FFF44F" stop-opacity=".634"/><stop offset=".489" stop-color="#FFF44F" stop-opacity=".217"/><stop offset=".6" stop-color="#FFF44F" stop-opacity="0"/></linearGradient></defs></svg>