<svg width="31" height="30" fill="none" xmlns="http://www.w3.org/2000/svg"><path d="M15.087.003s8.841-.396 13.529 8.46H14.334s-2.695-.087-4.997 3.171c-.662 1.368-1.372 2.776-.575 5.552-1.149-1.94-6.1-10.531-6.1-10.531S6.153.353 15.086.003z" fill="#EF3F36"/><path d="M28.157 22.483s-4.08 7.83-14.116 7.443l7.143-12.324s1.426-2.281-.256-5.898c-.856-1.256-1.728-2.57-4.54-3.27 2.262-.02 12.203 0 12.203 0s3.725 6.166-.434 14.05z" fill="#FCD900"/><path d="M2.078 22.545s-4.766-7.435.591-15.903C3.905 8.78 9.81 18.966 9.81 18.966s1.272 2.372 5.253 2.726c1.517-.111 3.096-.206 5.113-2.277-1.112 1.96-6.101 10.527-6.101 10.527s-7.226.132-11.996-7.397z" fill="#61BC5B"/><path d="M14.037 30l2.008-8.353s2.208-.173 4.06-2.195C18.955 21.466 14.037 30 14.037 30z" fill="#5AB055"/><path d="M8.357 15.094c0-3.682 2.997-6.668 6.693-6.668 3.695 0 6.692 2.986 6.692 6.668s-2.997 6.668-6.692 6.668c-3.696-.004-6.693-2.986-6.693-6.668z" fill="#fff"/><path d="M9.478 15.094c0-3.064 2.492-5.552 5.572-5.552 3.075 0 5.572 2.483 5.572 5.552 0 3.064-2.493 5.552-5.572 5.552-3.076 0-5.572-2.488-5.572-5.552z" fill="url(#paint0_linear_404_172)"/><path d="M28.587 8.438l-8.271 2.418s-1.249-1.825-3.931-2.418c2.327-.012 12.202 0 12.202 0z" fill="#EACA05"/><path d="M8.601 16.881C7.44 14.877 2.661 6.655 2.661 6.655l6.126 6.038s-.628 1.289-.393 3.134l.207 1.054z" fill="#DF3A32"/><defs><linearGradient id="paint0_linear_404_172" x1="15.049" y1="9.62" x2="15.049" y2="20.312" gradientUnits="userSpaceOnUse"><stop stop-color="#86BBE5"/><stop offset="1" stop-color="#1072BA"/></linearGradient></defs></svg>