<svg width="24" height="21" fill="none" xmlns="http://www.w3.org/2000/svg"><path d="M23.45 1.048a1.534 1.534 0 00-1.217-.547c-.292.004-.58.061-.85.169L1.368 8.308C.309 8.713.162 9.32.177 9.648c.014.327.186.926 1.269 1.27h.02l4.15 1.191 2.25 6.42a1.938 1.938 0 001.788 1.423 2.117 2.117 0 001.434-.611l2.567-2.364 3.724 2.995.035.03.01.007a2.15 2.15 0 001.307.491 1.834 1.834 0 001.75-1.626l3.28-16.189a1.933 1.933 0 00-.311-1.637zM7.005 11.88l8.006-4.09-4.985 5.293a.69.69 0 00-.168.309l-.961 3.904-1.892-5.416zm3.145 6.433c-.033.03-.066.058-.1.083l.891-3.612 1.622 1.306-2.413 2.223zM22.407 2.41l-3.283 16.189c-.032.154-.132.516-.397.516a.808.808 0 01-.454-.198l-4.22-3.396-2.514-2.022 7.21-7.662a.692.692 0 00-.818-1.091L6.08 10.803 1.873 9.6l20.005-7.635c.113-.047.233-.074.356-.078.042 0 .117 0 .145.04.07.153.079.326.025.485l.003-.001z" fill="#fff"/></svg>