<svg width="31" height="30" fill="none" xmlns="http://www.w3.org/2000/svg"><path fill-rule="evenodd" clip-rule="evenodd" d="M30.875 15c0 8.284-6.716 15-15 15-8.284 0-15-6.716-15-15 0-8.284 6.716-15 15-15 8.284 0 15 6.716 15 15z" fill="url(#paint0_linear_404_184)"/><path fill-rule="evenodd" clip-rule="evenodd" d="M30.148 15c0 7.883-6.39 14.273-14.273 14.273S1.602 22.883 1.602 15 7.992.727 15.875.727 30.148 7.117 30.148 15z" fill="#fff"/><path fill-rule="evenodd" clip-rule="evenodd" d="M25.531 8.813l-8.027 7.851v9.762c0 .176-.762.316-1.63.328-.831-.012-1.628-.152-1.628-.328v-9.762L6.219 8.813c-.13-.13.28-.739.914-1.372.632-.632 1.253-1.043 1.37-.914l7.36 7.184 7.36-7.184c.128-.129.738.282 1.37.914.633.633 1.055 1.243.938 1.372z" fill="#EC1C24"/><defs><linearGradient id="paint0_linear_404_184" x1="15.875" y1="0" x2="15.875" y2="30" gradientUnits="userSpaceOnUse"><stop stop-color="#F5F5F6"/><stop offset="1" stop-color="#EDEDEE"/></linearGradient></defs></svg>