<svg width="22" height="23" viewBox="0 0 22 23" fill="none" xmlns="http://www.w3.org/2000/svg">
<path d="M10.229 12.3359V21.5632" stroke="white" stroke-width="2" stroke-linecap="round" stroke-linejoin="round"/>
<path d="M7.15283 15.4117L10.2286 12.3359L13.3044 15.4117" stroke="white" stroke-width="2" stroke-linecap="round" stroke-linejoin="round"/>
<path d="M18.6871 13.2587C19.2584 12.9291 19.7523 12.4808 20.1356 11.9442C20.519 11.4076 20.7828 10.795 20.9093 10.1477C21.0359 9.50047 21.0222 8.83362 20.8692 8.19212C20.7162 7.55061 20.4274 6.94937 20.0224 6.42891C19.6173 5.90846 19.1054 5.48089 18.5211 5.17502C17.9368 4.86916 17.2938 4.69212 16.6353 4.65583C15.9768 4.61955 15.3181 4.72485 14.7038 4.96466C14.0894 5.20447 13.5336 5.5732 13.0738 6.046C12.6707 4.61551 11.7632 3.37936 10.5193 2.56606C9.27536 1.75276 7.77904 1.4173 6.30695 1.62171C4.83486 1.82611 3.48654 2.55655 2.51125 3.678C1.53596 4.79945 0.999655 6.23607 1.00147 7.72229C1.00256 9.12041 1.47989 10.4765 2.35481 11.567" stroke="white" stroke-width="2" stroke-linecap="round" stroke-linejoin="round"/>
</svg>
